<svg version="1.2" baseProfile="tiny-ps" xmlns="http://www.w3.org/2000/svg" viewBox="0 0 894 220" width="894" height="220">
	<title>New Project</title>
	<defs>
		<linearGradient id="grd1" gradientUnits="userSpaceOnUse"  x1="745.385" y1="226.545" x2="881.218" y2="14.807">
			<stop offset="0" stop-color="#d75dff"  />
			<stop offset="0.057" stop-color="#d75dff"  />
			<stop offset="0.53" stop-color="#00d7ff"  />
			<stop offset="1" stop-color="#00ffb0"  />
		</linearGradient>
		<linearGradient id="grd2" gradientUnits="userSpaceOnUse"  x1="790.74" y1="212.13" x2="799.391" y2="-14.13">
			<stop offset="0" stop-color="#d75dff"  />
			<stop offset="0.562" stop-color="#00d7ff"  />
			<stop offset="0.938" stop-color="#00ffb0"  />
			<stop offset="1" stop-color="#00ffb0"  />
		</linearGradient>
		<linearGradient id="grd3" gradientUnits="userSpaceOnUse"  x1="591.385" y1="-2230.455" x2="727.218" y2="-2442.193">
			<stop offset="0" stop-color="#d75dff"  />
			<stop offset="0.057" stop-color="#d75dff"  />
			<stop offset="0.53" stop-color="#00d7ff"  />
			<stop offset="1" stop-color="#00ffb0"  />
		</linearGradient>
		<linearGradient id="grd4" gradientUnits="userSpaceOnUse"  x1="636.74" y1="-2244.87" x2="645.391" y2="-2471.13">
			<stop offset="0" stop-color="#d75dff"  />
			<stop offset="0.562" stop-color="#00d7ff"  />
			<stop offset="0.938" stop-color="#00ffb0"  />
			<stop offset="1" stop-color="#00ffb0"  />
		</linearGradient>
	</defs>
	<style>
		tspan { white-space:pre }
		.shp0 { fill: #4d4d4d } 
		.shp1 { fill: url(#grd1) } 
		.shp2 { fill: url(#grd2) } 
		.shp3 { fill: #ffffff } 
		.shp4 { fill: url(#grd3) } 
		.shp5 { fill: url(#grd4) } 
		.shp6 { fill: none;stroke: #cccccc;stroke-linecap:round;stroke-width: 2 } 
	</style>
	<path id="Path 42" class="shp0" d="M14.86 142.44L31.14 142.44L31.14 184.53L37.54 184.53L37.54 142.44L53.81 142.44L53.81 136.39L14.86 136.39L14.86 142.44ZM98.89 136.39L98.89 163.9C98.89 177.93 91.43 185.35 79.15 185.35C66.88 185.35 59.41 177.93 59.41 163.9L59.41 138.59L66.08 136.67L66.08 163.9C66.08 174.63 70.88 179.3 79.15 179.3C87.69 179.3 92.49 174.35 92.49 163.9L92.49 138.59L98.89 136.39ZM178.39 136.39L162.92 184.53L155.71 184.53L144.24 149.87L142.91 146.02L141.84 149.87L130.1 184.53L123.17 184.53L107.43 136.39L114.37 136.39L126.9 175.45L139.71 136.39L146.38 136.39L159.18 175.73L171.99 136.39L178.39 136.39Z" />
	<path id="Path 43" fill-rule="evenodd" class="shp0" d="M226.41 184.53L219.47 184.53L214.4 172.42L189.59 172.42L184.53 184.53L177.59 184.53L197.87 138.59L198.13 138.59L205.6 136.39L226.41 184.53ZM212.27 166.92L205.6 151.25L202.13 143.27L198.66 151.52L192 166.92L212.27 166.92ZM240.01 136.39L240.01 184.53L233.34 184.53L233.34 138.32L240.01 136.39ZM301.9 188.65C298.97 192.5 294.97 194.43 290.17 194.43C284.3 194.43 279.76 191.68 273.09 184.8C259.75 184.25 249.88 173.8 249.88 160.32C249.88 146.02 260.29 135.57 274.69 135.57C288.83 135.57 299.5 146.02 299.5 160.32C299.5 172.43 292.03 181.78 281.09 184.25C284.3 187.83 287.23 189.2 290.17 189.2C293.37 189.2 296.3 187.83 298.7 185.08L301.9 188.65ZM274.69 179.03C285.09 179.03 292.83 171.05 292.83 160.6C292.83 150.15 285.09 142.17 274.69 142.17C264.29 142.17 256.55 149.87 256.55 160.6C256.55 171.05 264.29 179.03 274.69 179.03ZM377.93 160.6C377.93 171.05 385.67 179.02 396.34 179.02C401.41 179.02 405.67 177.1 409.41 173.25L413.68 177.65C409.41 182.6 403.01 185.35 395.8 185.35C381.67 185.35 370.99 174.9 370.99 160.6C370.99 146.29 381.67 135.84 395.8 135.84C403.01 135.84 409.41 138.32 413.68 143.27L409.41 147.67C405.94 143.82 401.41 141.89 396.34 141.89C385.93 141.89 377.93 149.87 377.93 160.6ZM515.58 160.32C515.58 174.63 505.18 184.53 490.24 184.53L470.5 184.53L470.5 136.39L490.24 136.39C505.44 136.39 515.58 146.02 515.58 160.32ZM508.65 160.32C508.65 149.6 501.18 142.17 489.7 142.17L477.17 142.17L477.17 178.48L489.97 178.48C501.44 178.48 508.91 171.32 508.65 160.32ZM532.12 178.48L559.33 178.48L559.33 184.53L525.45 184.53L525.45 136.39L558.53 136.39L558.53 142.45L532.12 142.45L532.12 157.02L555.59 157.02L555.59 163.07L532.12 163.07L532.12 178.48ZM619.62 136.39L619.62 184.53L613.22 184.53L613.22 149.32L596.41 178.75L593.21 178.75L576.41 149.6L576.41 184.53L570 184.53L570 136.39L575.34 136.39L595.08 170.23L614.29 136.39L619.62 136.39ZM663.37 136.39L670.04 136.39L651.37 168.02L651.37 184.53L644.7 184.53L644.7 167.75L626.29 136.39L633.22 136.39L648.43 161.7L663.37 136.39Z" />
	<path id="Path 44" fill-rule="evenodd" class="shp0" d="M368.59 184.53L361.66 184.53L356.59 172.42L331.78 172.42L326.71 184.53L319.78 184.53L340.05 138.59L340.32 138.59L347.79 136.39L368.59 184.53ZM354.72 166.92L348.05 151.25L344.59 143.27L341.12 151.52L334.45 166.92L354.72 166.92ZM463.56 184.53L456.63 184.53L451.56 172.42L426.75 172.42L421.68 184.53L414.74 184.53L435.02 138.59L435.29 138.59L442.75 136.39L463.56 184.53ZM449.69 166.92L443.02 151.25L439.55 143.27L436.09 151.52L429.42 166.92L449.69 166.92ZM650.56 94.31C650.83 94.59 645.23 100.36 645.23 100.36L542.52 100.36L542.52 41.78L549.46 39.85L549.46 94.04L642.56 94.04C642.29 93.49 642.29 93.21 642.03 92.66C640.69 90.19 639.09 87.71 636.96 85.24C633.22 81.39 628.16 79.46 622.82 79.46L570.27 79.46L567.07 73.13C567.07 72.86 568.4 72.03 568.67 71.76C569.2 71.21 569.73 70.93 570.27 70.38C571.34 69.56 572.4 68.73 573.47 67.91C575.6 66.26 577.74 64.61 579.87 62.96C584.14 59.93 588.68 57.46 593.74 55.53C594.28 55.26 594.81 55.26 595.08 54.98C599.35 53.61 604.15 53.06 608.42 54.43C608.68 54.43 609.48 54.71 609.75 54.71L606.02 60.76C595.08 58.28 575.87 72.58 575.87 72.58L624.42 72.58C628.42 72.58 632.43 73.68 635.89 75.88C639.36 78.08 643.1 80.84 645.5 84.14C645.76 84.41 645.76 84.41 646.03 84.69C647.63 87.71 649.23 91.01 650.56 94.31ZM130.64 108.34C131.97 108.34 133.31 108.61 134.11 109.71C134.91 110.54 135.44 111.92 135.44 113.29C135.44 114.67 134.91 116.04 134.11 116.87C133.04 117.69 131.97 118.24 130.64 118.24C129.31 118.24 128.24 117.69 127.17 116.87C126.37 115.77 125.84 114.67 125.84 113.29C125.84 111.92 126.11 110.81 127.17 109.71C127.97 108.61 129.04 108.06 130.64 108.34ZM121.04 116.87C119.97 117.69 118.9 118.24 117.57 118.24C116.24 118.24 115.17 117.69 114.1 116.87C113.3 115.77 112.77 114.66 112.77 113.29C112.77 111.92 113.03 110.81 114.1 109.71C115.17 108.89 116.24 108.34 117.57 108.34C118.9 108.34 120.24 108.61 121.04 109.71C121.84 110.54 122.37 111.92 122.37 113.29C122.37 114.66 121.84 115.77 121.04 116.87Z" />
	<path id="Path 45" fill-rule="evenodd" class="shp0" d="M135.98 61.03L135.98 94.31C134.91 95.41 130.91 99.81 130.91 99.81L74.09 99.81C73.82 101.19 73.55 103.11 73.02 105.59C72.49 108.06 71.42 110.26 69.82 112.47C68.22 114.67 66.08 116.59 63.42 118.24C60.75 119.89 57.28 120.72 53.01 120.72L38.07 120.72C35.41 120.72 32.47 120.17 29.8 119.34C26.87 118.24 24.47 116.87 22.33 114.94C20.2 113.01 18.33 110.81 17 107.79C15.67 105.04 14.86 101.46 14.86 97.61C14.86 94.59 15.13 91.56 15.67 89.36C15.93 87.16 16.47 84.96 17.26 83.31C17.8 81.39 18.6 80.01 19.4 78.64C20.2 77.26 20.73 76.16 21.53 75.06L26.6 75.06C25 77.81 23.93 80.56 22.87 83.86C21.8 86.89 21.27 90.19 21.27 93.21C21.27 95.14 21.53 97.34 21.8 99.81C22.07 102.29 22.87 104.49 24.2 106.69C25.53 108.89 27.14 110.81 29.54 112.19C31.67 113.56 34.87 114.39 38.87 114.39L50.08 114.39C50.88 114.39 52.21 114.39 53.81 114.12C55.68 114.12 57.28 113.29 59.15 112.47C61.01 111.64 62.62 110.26 63.95 108.34C65.28 106.41 66.08 103.66 66.35 100.36L56.21 100.36C50.88 100.36 46.88 99.26 44.21 96.79C41.54 94.31 40.21 90.46 40.21 85.24C40.21 82.76 40.74 80.28 41.81 78.08C42.87 75.61 44.74 73.41 47.14 71.48C49.81 69.56 53.01 67.91 56.75 66.26C60.75 64.61 65.28 63.51 70.89 62.68C71.68 67.08 72.22 71.76 72.75 76.98C73.29 82.21 73.55 87.71 73.55 93.76L128.51 93.76L128.51 63.51L135.98 61.03ZM65.82 93.76L65.82 85.79C65.82 84.14 65.55 82.48 65.55 80.84C65.55 78.91 65.55 77.26 65.28 75.61C65.02 73.96 65.02 72.31 64.75 70.93C58.61 72.58 54.08 74.51 51.41 76.71C48.74 79.18 47.14 81.93 47.14 85.24C47.14 86.06 47.14 86.89 47.41 87.99C47.68 88.81 48.21 89.91 48.74 90.74C49.54 91.56 50.34 92.39 51.14 92.94C52.21 93.49 53.28 93.76 54.88 93.76L65.82 93.76ZM298.7 94.59C297.63 95.69 293.63 100.09 293.63 100.09L175.45 100.09C175.45 101.46 175.19 103.39 174.39 105.59C173.59 107.79 172.52 109.99 170.92 112.19C169.32 114.39 167.18 116.32 164.52 117.97C161.85 119.62 158.38 120.72 154.11 120.99L152.25 114.67C154.92 114.39 157.58 113.84 159.72 112.74C160.78 112.47 161.58 111.92 162.65 111.09C163.72 110.54 164.52 109.71 165.32 108.61C166.12 107.51 166.92 106.41 167.45 105.04C167.99 103.66 168.25 102.01 168.52 100.36L158.38 100.36C153.05 100.36 149.05 99.26 146.38 96.79C143.71 94.31 142.38 90.46 142.38 85.24C142.38 82.76 142.91 80.28 143.98 78.08C145.04 75.61 146.91 73.41 149.31 71.48C151.98 69.56 155.18 67.91 158.92 66.26C162.92 64.61 167.45 63.51 173.05 62.68C173.85 67.08 174.39 71.76 174.92 76.98C175.45 81.93 175.72 87.71 175.72 93.49L233.08 93.49L233.08 41.5C235.48 40.95 237.88 40.13 240.01 39.3L240.01 83.31C242.41 81.11 244.81 78.91 247.22 76.98C257.09 69.01 268.29 63.78 280.83 65.16C285.36 65.71 290.96 66.81 293.9 70.38C296.83 73.68 297.63 78.36 298.17 82.48C298.17 83.59 298.7 89.09 298.97 93.76C298.97 94.04 299.23 94.31 298.7 94.59ZM168.25 93.76L168.25 85.79C168.25 84.14 167.99 82.48 167.99 80.84C167.99 78.91 167.99 77.26 167.72 75.61C167.45 73.96 167.45 72.31 167.18 70.93C161.05 72.58 156.51 74.51 153.85 76.71C151.18 79.18 149.58 81.93 149.58 85.24C149.58 86.06 149.58 86.89 149.84 87.99C150.11 88.81 150.65 89.91 151.18 90.74C151.71 91.56 152.51 92.39 153.58 92.94C154.65 93.49 155.71 93.76 157.32 93.76L168.25 93.76ZM292.3 93.76C292.03 89.91 292.3 85.24 291.23 81.39C290.7 78.63 289.36 76.16 287.23 74.51C284.83 72.58 281.63 71.76 278.43 71.48C264.82 70.93 253.88 78.91 244.81 88.54C244.01 89.64 242.95 90.46 242.15 91.56C241.88 92.11 240.81 93.76 240.28 93.76L292.3 93.76ZM487.3 61.03L487.3 94.31C486.24 95.41 482.24 99.81 482.24 99.81L451.82 99.81C451.02 101.46 450.22 102.56 449.69 102.84C449.16 103.11 448.36 103.39 447.56 103.39C446.75 103.39 445.95 103.39 445.16 102.84C443.29 102.29 440.89 101.19 437.95 99.81C435.02 98.44 431.28 96.51 427.01 94.31C425.95 96.79 424.61 98.16 423.28 98.99C421.95 99.81 419.81 100.09 417.41 100.09L350.99 100.09C350.45 99.81 349.92 99.26 349.39 98.71C349.12 98.16 348.58 97.89 348.32 97.34C348.05 97.06 347.79 96.51 347.52 95.96C346.99 96.79 346.45 97.61 345.65 98.16C345.12 98.71 343.78 98.99 342.45 99.54C341.12 99.81 338.98 100.09 336.58 100.09C330.98 100.09 326.71 98.71 324.04 95.69C321.38 92.94 320.04 88.81 320.04 83.59C320.04 81.11 320.58 78.64 321.91 76.43C323.24 74.23 325.38 72.03 328.04 70.11C330.98 68.18 334.45 66.53 338.72 65.16C342.98 63.78 348.32 62.68 354.19 62.13L354.19 93.76L391.8 93.76L391.8 63.51L398.74 61.58L398.74 94.04L419.81 94.04C421.68 89.91 423.55 85.79 425.68 82.21C427.82 78.63 429.95 75.33 431.82 72.58C433.95 69.83 435.82 67.63 437.42 65.98C439.02 64.33 440.35 63.51 441.42 63.51C443.02 63.51 444.09 64.33 445.42 65.43C446.49 66.53 447.56 67.91 448.62 69.83C449.42 71.48 450.22 73.68 451.02 75.88C451.82 78.08 452.36 80.28 452.89 82.48C453.42 84.41 453.69 86.34 453.96 88.26C454.23 90.19 454.23 91.56 454.23 92.39L454.23 93.76L480.63 93.76L480.63 63.51L487.3 61.03ZM347.79 70.11C344.32 70.66 341.12 71.48 338.72 72.58C336.05 73.68 334.18 74.78 332.58 75.88C330.98 77.26 329.91 78.36 329.11 79.73C328.31 81.11 328.04 82.48 328.04 83.86C328.04 86.06 328.31 87.71 328.84 89.09C329.38 90.46 329.91 91.29 330.71 92.11C331.51 92.66 332.31 93.21 333.38 93.49C334.45 93.76 335.25 93.76 336.32 93.76L347.79 93.76L347.79 70.11ZM447.02 95.96C447.02 93.21 446.49 90.46 446.22 87.71C445.95 84.96 445.42 82.49 444.89 80.28C444.35 78.08 443.82 76.16 443.02 74.78C442.22 73.41 441.42 72.58 440.62 72.58C439.82 72.58 438.75 73.13 437.68 74.51C436.35 75.88 435.28 77.26 434.22 78.91C433.15 80.56 432.08 82.21 431.28 83.86C430.22 85.51 429.68 86.61 429.41 87.16C430.75 87.99 432.08 89.09 433.68 89.91C435.28 90.74 436.89 91.56 438.49 92.39C440.09 92.94 441.69 93.76 443.29 94.31C444.89 94.86 446.22 95.41 447.02 95.96ZM497.71 99.26C497.17 98.99 496.37 98.71 495.84 98.44L496.37 91.84C496.91 92.11 497.71 92.39 498.51 92.66C499.31 92.94 500.11 93.21 500.91 93.21C501.71 93.49 502.78 93.49 503.84 93.49L525.18 93.49C525.18 91.56 525.18 89.64 524.65 87.16C524.38 84.69 523.58 82.21 522.25 79.73C521.18 76.98 519.32 74.78 517.18 72.31C515.05 70.11 512.11 68.18 508.65 66.53L510.78 58.83C513.45 59.66 516.11 61.31 518.78 63.51C521.45 65.98 523.85 68.46 525.99 71.76C528.12 75.06 529.99 78.36 531.32 82.21C532.65 86.06 533.45 89.91 533.45 93.76L533.45 100.36L503.31 100.36C502.24 100.36 501.17 100.36 500.38 100.09C499.58 99.81 498.77 99.81 497.71 99.26ZM670.04 39.58L669.24 39.8L669.24 39.58L670.04 39.58ZM669.24 39.8L669.24 43.43L654.3 48.1L654.3 44.8L658.83 43.43C658.03 43.15 657.23 42.6 656.7 41.5C656.16 40.4 655.9 39.58 655.9 38.75C655.9 37.65 656.16 36.55 656.7 35.45C657.23 34.63 657.77 33.8 658.57 32.98C659.37 32.43 660.17 31.88 661.23 31.33C662.3 30.78 663.1 30.5 664.17 30.5C665.24 30.23 666.3 30.5 667.1 30.78C668.17 31.05 668.97 31.6 669.5 32.43L666.84 34.9C666.04 34.63 665.5 34.08 664.7 34.08C663.9 33.8 663.37 33.8 662.57 34.08C661.77 34.35 661.23 34.63 660.7 35.18C660.17 35.73 659.9 36.28 659.9 37.1C659.9 37.65 660.17 38.2 660.43 38.75C660.7 39.3 660.97 39.85 661.5 40.13C662.03 40.4 662.3 40.68 662.83 40.95C663.37 40.95 663.9 41.23 664.17 41.23L669.24 39.8ZM659.63 100.36L659.63 50.31L666.57 48.38L666.57 100.36L659.63 100.36ZM402.21 108.34C403.54 108.34 404.87 108.61 405.67 109.71C406.47 110.54 407.01 111.92 407.01 113.29C407.01 114.67 406.47 116.04 405.67 116.87C404.61 117.69 403.54 118.24 402.21 118.24C400.87 118.24 399.8 117.69 398.74 116.87C397.94 115.77 397.4 114.67 397.4 113.29C397.4 111.92 397.67 110.81 398.74 109.71C399.8 108.61 400.87 108.06 402.21 108.34ZM392.87 116.87C391.8 117.69 390.74 118.24 389.4 118.24C388.07 118.24 387 117.69 385.93 116.87C385.13 115.77 384.6 114.66 384.6 113.29C384.6 111.92 384.87 110.81 385.93 109.71C387 108.89 388.07 108.34 389.4 108.34C390.74 108.34 392.07 108.61 392.87 109.71C393.67 110.54 394.2 111.92 394.2 113.29C394.2 114.66 393.67 115.77 392.87 116.87ZM66.61 45.35C67.95 45.35 69.28 45.63 70.08 46.73C70.88 47.56 71.42 48.93 71.42 50.31C71.42 51.68 70.88 53.06 70.08 53.88C69.02 54.71 67.95 55.26 66.61 55.26C65.28 55.26 64.21 54.71 63.15 53.88C62.35 52.78 61.81 51.68 61.81 50.31C61.81 48.93 62.08 47.83 63.15 46.73C63.95 45.9 65.28 45.35 66.61 45.35ZM57.01 54.16C55.95 54.98 54.88 55.53 53.55 55.53C52.21 55.53 51.14 54.98 50.08 54.16C49.28 53.05 48.74 51.95 48.74 50.58C48.74 49.2 49.01 48.1 50.08 47C51.14 46.18 52.21 45.63 53.55 45.63C54.88 45.63 56.21 45.9 57.01 47C57.81 47.83 58.35 49.2 58.35 50.58C58.35 51.95 58.08 53.05 57.01 54.16ZM349.92 45.35C351.25 45.35 352.59 45.63 353.39 46.73C354.19 47.56 354.72 48.93 354.72 50.31C354.72 51.68 354.19 53.06 353.39 53.88C352.32 54.71 351.25 55.26 349.92 55.26C348.59 55.26 347.52 54.71 346.45 53.88C345.65 52.78 345.12 51.68 345.12 50.31C345.12 48.93 345.39 47.83 346.45 46.73C347.25 45.9 348.59 45.35 349.92 45.35ZM340.32 54.16C339.25 54.98 338.18 55.53 336.85 55.53C335.52 55.53 334.45 54.98 333.38 54.16C332.58 53.05 332.05 51.95 332.05 50.58C332.05 49.2 332.31 48.1 333.38 47C334.45 46.18 335.52 45.63 336.85 45.63C338.18 45.63 339.52 45.9 340.32 47C341.12 47.83 341.65 49.2 341.65 50.58C341.65 51.95 341.38 53.05 340.32 54.16ZM482.77 108.34C484.1 108.34 485.44 108.61 486.24 109.71C487.04 110.54 487.57 111.92 487.57 113.29C487.57 114.67 487.04 116.04 486.24 116.87C485.17 117.69 484.1 118.24 482.77 118.24C481.43 118.24 480.37 117.69 479.3 116.87C478.5 115.77 477.97 114.67 477.97 113.29C477.97 111.92 478.23 110.81 479.3 109.71C480.1 108.61 481.43 108.06 482.77 108.34ZM473.17 116.87C472.1 117.69 471.03 118.24 469.7 118.24C468.36 118.24 467.3 117.69 466.23 116.87C465.43 115.77 464.9 114.66 464.9 113.29C464.9 111.92 465.16 110.81 466.23 109.71C467.3 108.89 468.36 108.34 469.7 108.34C471.03 108.34 472.37 108.61 473.17 109.71C473.97 110.54 474.5 111.92 474.5 113.29C474.5 114.66 474.23 115.77 473.17 116.87Z" />
	<path id="Path 46" fill-rule="evenodd" class="shp1" d="M793.77 5.05L797.3 7.89C848.89 48.81 880.42 110.64 883.84 177.47L884.06 181.67L880.31 183.27C852.86 195.2 823.76 201.22 793.77 201.22C763.79 201.22 734.68 195.2 707.23 183.27L703.49 181.67L703.71 177.47C707.13 110.64 738.65 48.92 790.24 7.89L793.77 5.05ZM793.66 189.29C820.67 189.29 847.02 184.06 871.82 173.83C867.63 113.71 839.3 58.13 793.66 20.16C748.02 58.13 719.69 113.71 715.5 173.83C740.31 184.06 766.65 189.29 793.66 189.29Z" />
	<path id="Path 47" class="shp2" d="M777.78 49.92L780.31 52.31L783.4 55.49L786.49 58.56L789.57 61.74L792.55 65.04L795.53 68.22L798.39 71.63L801.26 75.04L804.02 78.45L806.66 81.97L809.31 85.5L811.84 89.02L814.38 92.66L816.8 96.41L819.23 100.16L821.55 103.91L823.86 107.77L825.95 111.64L828.05 115.62L830.14 119.48L832.02 123.46L833.89 127.55L835.65 131.53L837.42 135.62L839.07 139.71L840.72 143.8L842.27 148.01L843.37 151.24L833.6 145.82L833.23 144.83L830.58 138.35L827.72 131.98L824.74 125.62L821.55 119.37L818.13 113.23L814.6 107.21L810.85 101.29L806.88 95.5L802.8 89.82L798.61 84.25L794.2 78.79L789.69 73.56L785.05 68.45L780.2 63.45L775.24 58.56L772.38 55.95C767.64 61.85 763.34 67.88 759.26 74.24L760.69 75.38L766.2 80.27L771.61 85.38L776.9 90.5L782.08 95.73L787.15 101.18L792 106.75L796.74 112.43L801.37 118.23L805.78 124.14L810.08 130.16L813.73 135.51C812.36 134.98 810.97 134.51 809.58 134.09L805.56 129.26L800.16 123L794.53 116.87L788.8 110.84L782.96 105.05L777.01 99.36L770.95 93.79L764.66 88.34L758.27 83.11L755.18 80.72C752.09 85.95 749.23 91.41 746.69 96.98L751.98 100.61L758.71 105.5L764.88 110.27L770.95 115.16L776.9 120.28L782.74 125.5L788.47 130.96L789.09 131.58C785.85 131.76 782.62 132.23 779.42 132.95L778.77 132.32L773.15 127.21L767.31 122.21L761.35 117.32L755.29 112.66L749.12 108.11L743.83 104.36C741.95 108.8 740.3 113.23 738.76 117.66L738.98 117.78L741.73 119.14L744.6 120.62L747.35 122.1L750.11 123.69L752.86 125.28L755.62 126.98L758.27 128.69L760.91 130.39L763.56 132.21L766.2 134.03L768.74 135.85L769.23 136.22C767.32 137.02 765.44 137.94 763.59 138.94L762.13 138.12L757.28 135.39L752.31 132.78L747.35 130.28L742.39 127.89L737.32 125.5L736.33 125.05C734.9 129.82 733.68 134.71 732.58 139.6L736.11 140.96L741.51 143.12L746.91 145.39L750.53 146.99L742.64 151.92L739.86 150.62L736.33 149.15L732.8 147.67L731.04 146.99C730.27 151.4 729.5 155.94 728.95 160.47L728.95 160.47L728.95 160.47C728.95 160.49 728.95 160.5 728.94 160.51C737.67 163.64 746.57 166.02 755.63 167.78C765.53 169.78 777.37 171.44 789.7 171.51C803.39 171.59 815.78 170.18 826.07 168.34C826.42 168.28 826.76 168.22 827.1 168.16C827.68 168.05 828.26 167.94 828.83 167.83C831.42 167.34 834 166.79 836.57 166.18C842.64 164.75 847.52 163.31 850.93 162.2C852.79 161.61 854.65 161.01 856.49 160.4C850.65 111.87 828.05 67.2 792.77 34.35C787.48 39.24 782.52 44.46 777.78 49.92Z" />
	<path id="Path 48" class="shp3" d="M787 154.13C785.45 155.91 783.66 157.44 781.7 158.62C780.53 159.33 777.39 161.67 776.07 160.45C775.87 160.26 775.79 159.97 775.71 159.72C774.64 155.26 776.49 151.56 778.96 148.09C780.45 146.02 782.1 144.14 783.93 142.4C784.19 142.15 785.09 141.15 785.45 141.11C785.49 141.11 785.43 141.24 785.33 141.36C785.25 141.49 785.17 141.61 785.15 141.65C784.39 142.98 779 152.65 778.94 154.4C778.86 156.28 783.1 155.08 784.23 154.21C784.91 153.69 784.87 152.67 784.89 151.76C784.93 150.13 784.03 148.66 785.47 147.37C786.46 146.52 788.45 145.71 789.61 146.48C792.43 148.32 788.27 152.65 787 154.13ZM795.66 154.1C794.05 156.07 790.03 159.82 788.01 162.16C785.97 164.5 781.76 168.79 780.47 170.33C779.2 171.84 774.02 171.73 774.02 171.73C774.02 171.73 778.26 168.11 780.61 166.33C782.98 164.5 787.26 159.12 788.99 157.19C790.7 155.26 793.65 151.45 794.52 150.35C795.36 149.28 798.03 146.35 798.03 146.35C798.03 146.35 799.56 149.28 795.66 154.1ZM805.77 145.26C804.89 147.43 801.55 144.41 804.74 142.17C807.96 139.93 808.34 139.48 808.22 140.95L805.77 145.26ZM815.73 145.55C815.76 145.88 815.55 146.19 815.23 146.27C814.87 146.36 814.47 146.38 814.13 146.54C813.56 146.77 813.73 147 813.75 147.64C813.77 148.9 813.69 150.19 813.44 151.43C813.32 152.12 813.14 152.8 812.76 153.34C811.94 154.5 810.45 154.73 809.49 155.7C808.48 156.69 807.52 157.79 806.63 158.89C806.05 159.62 805.53 161.94 805.35 162.87C804.72 166.2 796.95 169.08 793.13 169.08C787.58 169.1 791.78 165.77 792.65 165.11C792.73 165.04 792.85 165 792.97 165L800.46 164.19C803.72 163.86 804.74 159.39 803.34 158.17C801.93 156.94 800.61 156.55 800.42 154.1C800.32 152.96 802.03 148.45 805.97 150.54C808.18 151.7 810.41 151.54 810.41 151.54L810.43 150.64L810.09 146.75C807.56 147.25 808.22 145.44 808.5 144.57C808.78 143.7 809.73 143.95 812 142.92C814.03 141.98 814.79 141.55 815.23 141.55L815.73 145.55Z" />
	<path id="Path 42" class="shp0" d="M-139.14 -2314.56L-122.86 -2314.56L-122.86 -2272.47L-116.46 -2272.47L-116.46 -2314.56L-100.19 -2314.56L-100.19 -2320.61L-139.14 -2320.61L-139.14 -2314.56ZM-55.11 -2320.61L-55.11 -2293.1C-55.11 -2279.07 -62.57 -2271.65 -74.85 -2271.65C-87.12 -2271.65 -94.59 -2279.07 -94.59 -2293.1L-94.59 -2318.41L-87.92 -2320.33L-87.92 -2293.1C-87.92 -2282.37 -83.12 -2277.7 -74.85 -2277.7C-66.31 -2277.7 -61.51 -2282.65 -61.51 -2293.1L-61.51 -2318.41L-55.11 -2320.61ZM24.39 -2320.61L8.92 -2272.47L1.71 -2272.47L-9.76 -2307.13L-11.09 -2310.98L-12.16 -2307.13L-23.9 -2272.47L-30.83 -2272.47L-46.57 -2320.61L-39.63 -2320.61L-27.1 -2281.55L-14.29 -2320.61L-7.62 -2320.61L5.18 -2281.27L17.99 -2320.61L24.39 -2320.61Z" />
	<path id="Path 43" fill-rule="evenodd" class="shp0" d="M72.41 -2272.47L65.47 -2272.47L60.4 -2284.58L35.59 -2284.58L30.53 -2272.47L23.59 -2272.47L43.87 -2318.41L44.13 -2318.41L51.6 -2320.61L72.41 -2272.47ZM58.27 -2290.08L51.6 -2305.75L48.13 -2313.73L44.66 -2305.48L38 -2290.08L58.27 -2290.08ZM86.01 -2320.61L86.01 -2272.47L79.34 -2272.47L79.34 -2318.68L86.01 -2320.61ZM147.9 -2268.35C144.97 -2264.5 140.97 -2262.57 136.17 -2262.57C130.3 -2262.57 125.76 -2265.32 119.09 -2272.2C105.75 -2272.75 95.88 -2283.2 95.88 -2296.68C95.88 -2310.98 106.29 -2321.43 120.69 -2321.43C134.83 -2321.43 145.5 -2310.98 145.5 -2296.68C145.5 -2284.57 138.03 -2275.22 127.09 -2272.75C130.3 -2269.17 133.23 -2267.8 136.17 -2267.8C139.37 -2267.8 142.3 -2269.17 144.7 -2271.92L147.9 -2268.35ZM120.69 -2277.97C131.09 -2277.97 138.83 -2285.95 138.83 -2296.4C138.83 -2306.85 131.09 -2314.83 120.69 -2314.83C110.29 -2314.83 102.55 -2307.13 102.55 -2296.4C102.55 -2285.95 110.29 -2277.97 120.69 -2277.97ZM223.93 -2296.4C223.93 -2285.95 231.67 -2277.98 242.34 -2277.98C247.41 -2277.98 251.67 -2279.9 255.41 -2283.75L259.68 -2279.35C255.41 -2274.4 249.01 -2271.65 241.8 -2271.65C227.67 -2271.65 216.99 -2282.1 216.99 -2296.4C216.99 -2310.71 227.67 -2321.16 241.8 -2321.16C249.01 -2321.16 255.41 -2318.68 259.68 -2313.73L255.41 -2309.33C251.94 -2313.18 247.41 -2315.11 242.34 -2315.11C231.93 -2315.11 223.93 -2307.13 223.93 -2296.4ZM361.58 -2296.68C361.58 -2282.37 351.18 -2272.47 336.24 -2272.47L316.5 -2272.47L316.5 -2320.61L336.24 -2320.61C351.44 -2320.61 361.58 -2310.98 361.58 -2296.68ZM354.65 -2296.68C354.65 -2307.4 347.18 -2314.83 335.7 -2314.83L323.17 -2314.83L323.17 -2278.52L335.97 -2278.52C347.44 -2278.52 354.91 -2285.68 354.65 -2296.68ZM378.12 -2278.52L405.33 -2278.52L405.33 -2272.47L371.45 -2272.47L371.45 -2320.61L404.53 -2320.61L404.53 -2314.55L378.12 -2314.55L378.12 -2299.98L401.59 -2299.98L401.59 -2293.93L378.12 -2293.93L378.12 -2278.52ZM465.62 -2320.61L465.62 -2272.47L459.22 -2272.47L459.22 -2307.68L442.41 -2278.25L439.21 -2278.25L422.41 -2307.4L422.41 -2272.47L416 -2272.47L416 -2320.61L421.34 -2320.61L441.08 -2286.77L460.29 -2320.61L465.62 -2320.61ZM509.37 -2320.61L516.04 -2320.61L497.37 -2288.98L497.37 -2272.47L490.7 -2272.47L490.7 -2289.25L472.29 -2320.61L479.22 -2320.61L494.43 -2295.3L509.37 -2320.61Z" />
	<path id="Path 44" fill-rule="evenodd" class="shp0" d="M214.59 -2272.47L207.66 -2272.47L202.59 -2284.58L177.78 -2284.58L172.71 -2272.47L165.78 -2272.47L186.05 -2318.41L186.32 -2318.41L193.79 -2320.61L214.59 -2272.47ZM200.72 -2290.08L194.05 -2305.75L190.59 -2313.73L187.12 -2305.48L180.45 -2290.08L200.72 -2290.08ZM309.56 -2272.47L302.63 -2272.47L297.56 -2284.58L272.75 -2284.58L267.68 -2272.47L260.74 -2272.47L281.02 -2318.41L281.29 -2318.41L288.75 -2320.61L309.56 -2272.47ZM295.69 -2290.08L289.02 -2305.75L285.55 -2313.73L282.09 -2305.48L275.42 -2290.08L295.69 -2290.08ZM496.56 -2362.69C496.83 -2362.41 491.23 -2356.64 491.23 -2356.64L388.52 -2356.64L388.52 -2415.22L395.46 -2417.15L395.46 -2362.96L488.56 -2362.96C488.29 -2363.51 488.29 -2363.79 488.03 -2364.34C486.69 -2366.81 485.09 -2369.29 482.96 -2371.76C479.22 -2375.61 474.16 -2377.54 468.82 -2377.54L416.27 -2377.54L413.07 -2383.87C413.07 -2384.14 414.4 -2384.97 414.67 -2385.24C415.2 -2385.79 415.73 -2386.07 416.27 -2386.62C417.34 -2387.44 418.4 -2388.27 419.47 -2389.09C421.6 -2390.74 423.74 -2392.39 425.87 -2394.04C430.14 -2397.07 434.68 -2399.54 439.74 -2401.47C440.28 -2401.74 440.81 -2401.74 441.08 -2402.02C445.35 -2403.39 450.15 -2403.94 454.42 -2402.57C454.68 -2402.57 455.48 -2402.29 455.75 -2402.29L452.02 -2396.24C441.08 -2398.72 421.87 -2384.42 421.87 -2384.42L470.42 -2384.42C474.42 -2384.42 478.43 -2383.32 481.89 -2381.12C485.36 -2378.92 489.1 -2376.16 491.5 -2372.86C491.76 -2372.59 491.76 -2372.59 492.03 -2372.31C493.63 -2369.29 495.23 -2365.99 496.56 -2362.69ZM-23.36 -2348.66C-22.03 -2348.66 -20.69 -2348.39 -19.89 -2347.29C-19.09 -2346.46 -18.56 -2345.08 -18.56 -2343.71C-18.56 -2342.33 -19.09 -2340.96 -19.89 -2340.13C-20.96 -2339.31 -22.03 -2338.76 -23.36 -2338.76C-24.69 -2338.76 -25.76 -2339.31 -26.83 -2340.13C-27.63 -2341.23 -28.16 -2342.33 -28.16 -2343.71C-28.16 -2345.08 -27.89 -2346.19 -26.83 -2347.29C-26.03 -2348.39 -24.96 -2348.94 -23.36 -2348.66ZM-32.96 -2340.13C-34.03 -2339.31 -35.1 -2338.76 -36.43 -2338.76C-37.76 -2338.76 -38.83 -2339.31 -39.9 -2340.13C-40.7 -2341.23 -41.23 -2342.34 -41.23 -2343.71C-41.23 -2345.08 -40.97 -2346.19 -39.9 -2347.29C-38.83 -2348.11 -37.76 -2348.66 -36.43 -2348.66C-35.1 -2348.66 -33.76 -2348.39 -32.96 -2347.29C-32.16 -2346.46 -31.63 -2345.08 -31.63 -2343.71C-31.63 -2342.34 -32.16 -2341.23 -32.96 -2340.13Z" />
	<path id="Path 45" fill-rule="evenodd" class="shp0" d="M-18.02 -2395.97L-18.02 -2362.69C-19.09 -2361.59 -23.09 -2357.19 -23.09 -2357.19L-79.91 -2357.19C-80.18 -2355.81 -80.45 -2353.89 -80.98 -2351.41C-81.51 -2348.94 -82.58 -2346.74 -84.18 -2344.53C-85.78 -2342.33 -87.92 -2340.41 -90.58 -2338.76C-93.25 -2337.11 -96.72 -2336.28 -100.99 -2336.28L-115.93 -2336.28C-118.59 -2336.28 -121.53 -2336.83 -124.2 -2337.66C-127.13 -2338.76 -129.53 -2340.13 -131.67 -2342.06C-133.8 -2343.99 -135.67 -2346.19 -137 -2349.21C-138.33 -2351.96 -139.14 -2355.54 -139.14 -2359.39C-139.14 -2362.41 -138.87 -2365.44 -138.33 -2367.64C-138.07 -2369.84 -137.53 -2372.04 -136.74 -2373.69C-136.2 -2375.61 -135.4 -2376.99 -134.6 -2378.36C-133.8 -2379.74 -133.27 -2380.84 -132.47 -2381.94L-127.4 -2381.94C-129 -2379.19 -130.07 -2376.44 -131.13 -2373.14C-132.2 -2370.11 -132.73 -2366.81 -132.73 -2363.79C-132.73 -2361.86 -132.47 -2359.66 -132.2 -2357.19C-131.93 -2354.71 -131.13 -2352.51 -129.8 -2350.31C-128.47 -2348.11 -126.86 -2346.19 -124.46 -2344.81C-122.33 -2343.44 -119.13 -2342.61 -115.13 -2342.61L-103.92 -2342.61C-103.12 -2342.61 -101.79 -2342.61 -100.19 -2342.88C-98.32 -2342.88 -96.72 -2343.71 -94.85 -2344.53C-92.99 -2345.36 -91.38 -2346.74 -90.05 -2348.66C-88.72 -2350.59 -87.92 -2353.34 -87.65 -2356.64L-97.79 -2356.64C-103.12 -2356.64 -107.12 -2357.74 -109.79 -2360.21C-112.46 -2362.69 -113.79 -2366.54 -113.79 -2371.76C-113.79 -2374.24 -113.26 -2376.72 -112.19 -2378.92C-111.13 -2381.39 -109.26 -2383.59 -106.86 -2385.52C-104.19 -2387.44 -100.99 -2389.09 -97.25 -2390.74C-93.25 -2392.39 -88.72 -2393.49 -83.11 -2394.32C-82.32 -2389.92 -81.78 -2385.24 -81.25 -2380.02C-80.71 -2374.79 -80.45 -2369.29 -80.45 -2363.24L-25.49 -2363.24L-25.49 -2393.49L-18.02 -2395.97ZM-88.18 -2363.24L-88.18 -2371.21C-88.18 -2372.86 -88.45 -2374.52 -88.45 -2376.16C-88.45 -2378.09 -88.45 -2379.74 -88.72 -2381.39C-88.98 -2383.04 -88.98 -2384.69 -89.25 -2386.07C-95.39 -2384.42 -99.92 -2382.49 -102.59 -2380.29C-105.26 -2377.82 -106.86 -2375.07 -106.86 -2371.76C-106.86 -2370.94 -106.86 -2370.11 -106.59 -2369.01C-106.32 -2368.19 -105.79 -2367.09 -105.26 -2366.26C-104.46 -2365.44 -103.66 -2364.61 -102.86 -2364.06C-101.79 -2363.51 -100.72 -2363.24 -99.12 -2363.24L-88.18 -2363.24ZM144.7 -2362.41C143.63 -2361.31 139.63 -2356.91 139.63 -2356.91L21.45 -2356.91C21.45 -2355.54 21.19 -2353.61 20.39 -2351.41C19.59 -2349.21 18.52 -2347.01 16.92 -2344.81C15.32 -2342.61 13.18 -2340.68 10.52 -2339.03C7.85 -2337.38 4.38 -2336.28 0.11 -2336.01L-1.75 -2342.33C0.92 -2342.61 3.58 -2343.16 5.72 -2344.26C6.78 -2344.53 7.58 -2345.08 8.65 -2345.91C9.72 -2346.46 10.52 -2347.29 11.32 -2348.39C12.12 -2349.49 12.92 -2350.59 13.45 -2351.96C13.99 -2353.34 14.25 -2354.99 14.52 -2356.64L4.38 -2356.64C-0.95 -2356.64 -4.95 -2357.74 -7.62 -2360.21C-10.29 -2362.69 -11.62 -2366.54 -11.62 -2371.76C-11.62 -2374.24 -11.09 -2376.72 -10.02 -2378.92C-8.96 -2381.39 -7.09 -2383.59 -4.69 -2385.52C-2.02 -2387.44 1.18 -2389.09 4.92 -2390.74C8.92 -2392.39 13.45 -2393.49 19.05 -2394.32C19.85 -2389.92 20.39 -2385.24 20.92 -2380.02C21.45 -2375.07 21.72 -2369.29 21.72 -2363.51L79.08 -2363.51L79.08 -2415.5C81.48 -2416.05 83.88 -2416.87 86.01 -2417.7L86.01 -2373.69C88.41 -2375.89 90.81 -2378.09 93.22 -2380.02C103.09 -2387.99 114.29 -2393.22 126.83 -2391.84C131.36 -2391.29 136.96 -2390.19 139.9 -2386.62C142.83 -2383.32 143.63 -2378.64 144.17 -2374.52C144.17 -2373.41 144.7 -2367.91 144.97 -2363.24C144.97 -2362.96 145.23 -2362.69 144.7 -2362.41ZM14.25 -2363.24L14.25 -2371.21C14.25 -2372.86 13.99 -2374.52 13.99 -2376.16C13.99 -2378.09 13.99 -2379.74 13.72 -2381.39C13.45 -2383.04 13.45 -2384.69 13.18 -2386.07C7.05 -2384.42 2.51 -2382.49 -0.15 -2380.29C-2.82 -2377.82 -4.42 -2375.07 -4.42 -2371.76C-4.42 -2370.94 -4.42 -2370.11 -4.16 -2369.01C-3.89 -2368.19 -3.35 -2367.09 -2.82 -2366.26C-2.29 -2365.44 -1.49 -2364.61 -0.42 -2364.06C0.65 -2363.51 1.71 -2363.24 3.32 -2363.24L14.25 -2363.24ZM138.3 -2363.24C138.03 -2367.09 138.3 -2371.76 137.23 -2375.61C136.7 -2378.37 135.36 -2380.84 133.23 -2382.49C130.83 -2384.42 127.63 -2385.24 124.43 -2385.52C110.82 -2386.07 99.88 -2378.09 90.81 -2368.46C90.01 -2367.36 88.95 -2366.54 88.15 -2365.44C87.88 -2364.89 86.81 -2363.24 86.28 -2363.24L138.3 -2363.24ZM333.3 -2395.97L333.3 -2362.69C332.24 -2361.59 328.24 -2357.19 328.24 -2357.19L297.82 -2357.19C297.02 -2355.54 296.22 -2354.44 295.69 -2354.16C295.16 -2353.89 294.36 -2353.61 293.56 -2353.61C292.75 -2353.61 291.95 -2353.61 291.16 -2354.16C289.29 -2354.71 286.89 -2355.81 283.95 -2357.19C281.02 -2358.56 277.28 -2360.49 273.01 -2362.69C271.95 -2360.21 270.61 -2358.84 269.28 -2358.01C267.95 -2357.19 265.81 -2356.91 263.41 -2356.91L196.99 -2356.91C196.45 -2357.19 195.92 -2357.74 195.39 -2358.29C195.12 -2358.84 194.58 -2359.11 194.32 -2359.66C194.05 -2359.94 193.79 -2360.49 193.52 -2361.04C192.99 -2360.21 192.45 -2359.39 191.65 -2358.84C191.12 -2358.29 189.78 -2358.01 188.45 -2357.46C187.12 -2357.19 184.98 -2356.91 182.58 -2356.91C176.98 -2356.91 172.71 -2358.29 170.04 -2361.31C167.38 -2364.06 166.04 -2368.19 166.04 -2373.41C166.04 -2375.89 166.58 -2378.36 167.91 -2380.57C169.24 -2382.77 171.38 -2384.97 174.04 -2386.89C176.98 -2388.82 180.45 -2390.47 184.72 -2391.84C188.98 -2393.22 194.32 -2394.32 200.19 -2394.87L200.19 -2363.24L237.8 -2363.24L237.8 -2393.49L244.74 -2395.42L244.74 -2362.96L265.81 -2362.96C267.68 -2367.09 269.55 -2371.21 271.68 -2374.79C273.82 -2378.37 275.95 -2381.67 277.82 -2384.42C279.95 -2387.17 281.82 -2389.37 283.42 -2391.02C285.02 -2392.67 286.35 -2393.49 287.42 -2393.49C289.02 -2393.49 290.09 -2392.67 291.42 -2391.57C292.49 -2390.47 293.56 -2389.09 294.62 -2387.17C295.42 -2385.52 296.22 -2383.32 297.02 -2381.12C297.82 -2378.92 298.36 -2376.72 298.89 -2374.52C299.42 -2372.59 299.69 -2370.66 299.96 -2368.74C300.23 -2366.81 300.23 -2365.44 300.23 -2364.61L300.23 -2363.24L326.63 -2363.24L326.63 -2393.49L333.3 -2395.97ZM193.79 -2386.89C190.32 -2386.34 187.12 -2385.52 184.72 -2384.42C182.05 -2383.32 180.18 -2382.22 178.58 -2381.12C176.98 -2379.74 175.91 -2378.64 175.11 -2377.27C174.31 -2375.89 174.04 -2374.52 174.04 -2373.14C174.04 -2370.94 174.31 -2369.29 174.84 -2367.91C175.38 -2366.54 175.91 -2365.71 176.71 -2364.89C177.51 -2364.34 178.31 -2363.79 179.38 -2363.51C180.45 -2363.24 181.25 -2363.24 182.32 -2363.24L193.79 -2363.24L193.79 -2386.89ZM293.02 -2361.04C293.02 -2363.79 292.49 -2366.54 292.22 -2369.29C291.95 -2372.04 291.42 -2374.51 290.89 -2376.72C290.35 -2378.92 289.82 -2380.84 289.02 -2382.22C288.22 -2383.59 287.42 -2384.42 286.62 -2384.42C285.82 -2384.42 284.75 -2383.87 283.68 -2382.49C282.35 -2381.12 281.28 -2379.74 280.22 -2378.09C279.15 -2376.44 278.08 -2374.79 277.28 -2373.14C276.22 -2371.49 275.68 -2370.39 275.41 -2369.84C276.75 -2369.01 278.08 -2367.91 279.68 -2367.09C281.28 -2366.26 282.89 -2365.44 284.49 -2364.61C286.09 -2364.06 287.69 -2363.24 289.29 -2362.69C290.89 -2362.14 292.22 -2361.59 293.02 -2361.04ZM343.71 -2357.74C343.17 -2358.01 342.37 -2358.29 341.84 -2358.56L342.37 -2365.16C342.91 -2364.89 343.71 -2364.61 344.51 -2364.34C345.31 -2364.06 346.11 -2363.79 346.91 -2363.79C347.71 -2363.51 348.78 -2363.51 349.84 -2363.51L371.18 -2363.51C371.18 -2365.44 371.18 -2367.36 370.65 -2369.84C370.38 -2372.31 369.58 -2374.79 368.25 -2377.27C367.18 -2380.02 365.32 -2382.22 363.18 -2384.69C361.05 -2386.89 358.11 -2388.82 354.65 -2390.47L356.78 -2398.17C359.45 -2397.34 362.11 -2395.69 364.78 -2393.49C367.45 -2391.02 369.85 -2388.54 371.99 -2385.24C374.12 -2381.94 375.99 -2378.64 377.32 -2374.79C378.65 -2370.94 379.45 -2367.09 379.45 -2363.24L379.45 -2356.64L349.31 -2356.64C348.24 -2356.64 347.17 -2356.64 346.38 -2356.91C345.58 -2357.19 344.77 -2357.19 343.71 -2357.74ZM516.04 -2417.42L515.24 -2417.2L515.24 -2417.42L516.04 -2417.42ZM515.24 -2417.2L515.24 -2413.57L500.3 -2408.9L500.3 -2412.2L504.83 -2413.57C504.03 -2413.85 503.23 -2414.4 502.7 -2415.5C502.16 -2416.6 501.9 -2417.42 501.9 -2418.25C501.9 -2419.35 502.16 -2420.45 502.7 -2421.55C503.23 -2422.37 503.77 -2423.2 504.57 -2424.02C505.37 -2424.57 506.17 -2425.12 507.23 -2425.67C508.3 -2426.22 509.1 -2426.5 510.17 -2426.5C511.24 -2426.77 512.3 -2426.5 513.1 -2426.22C514.17 -2425.95 514.97 -2425.4 515.5 -2424.57L512.84 -2422.1C512.04 -2422.37 511.5 -2422.92 510.7 -2422.92C509.9 -2423.2 509.37 -2423.2 508.57 -2422.92C507.77 -2422.65 507.23 -2422.37 506.7 -2421.82C506.17 -2421.27 505.9 -2420.72 505.9 -2419.9C505.9 -2419.35 506.17 -2418.8 506.43 -2418.25C506.7 -2417.7 506.97 -2417.15 507.5 -2416.87C508.03 -2416.6 508.3 -2416.32 508.83 -2416.05C509.37 -2416.05 509.9 -2415.77 510.17 -2415.77L515.24 -2417.2ZM505.63 -2356.64L505.63 -2406.69L512.57 -2408.62L512.57 -2356.64L505.63 -2356.64ZM248.21 -2348.66C249.54 -2348.66 250.87 -2348.39 251.67 -2347.29C252.47 -2346.46 253.01 -2345.08 253.01 -2343.71C253.01 -2342.33 252.47 -2340.96 251.67 -2340.13C250.61 -2339.31 249.54 -2338.76 248.21 -2338.76C246.87 -2338.76 245.8 -2339.31 244.74 -2340.13C243.94 -2341.23 243.4 -2342.33 243.4 -2343.71C243.4 -2345.08 243.67 -2346.19 244.74 -2347.29C245.8 -2348.39 246.87 -2348.94 248.21 -2348.66ZM238.87 -2340.13C237.8 -2339.31 236.74 -2338.76 235.4 -2338.76C234.07 -2338.76 233 -2339.31 231.93 -2340.13C231.13 -2341.23 230.6 -2342.34 230.6 -2343.71C230.6 -2345.08 230.87 -2346.19 231.93 -2347.29C233 -2348.11 234.07 -2348.66 235.4 -2348.66C236.74 -2348.66 238.07 -2348.39 238.87 -2347.29C239.67 -2346.46 240.2 -2345.08 240.2 -2343.71C240.2 -2342.34 239.67 -2341.23 238.87 -2340.13ZM-87.39 -2411.65C-86.05 -2411.65 -84.72 -2411.37 -83.92 -2410.27C-83.12 -2409.44 -82.58 -2408.07 -82.58 -2406.69C-82.58 -2405.32 -83.12 -2403.94 -83.92 -2403.12C-84.98 -2402.29 -86.05 -2401.74 -87.39 -2401.74C-88.72 -2401.74 -89.79 -2402.29 -90.85 -2403.12C-91.65 -2404.22 -92.19 -2405.32 -92.19 -2406.69C-92.19 -2408.07 -91.92 -2409.17 -90.85 -2410.27C-90.05 -2411.1 -88.72 -2411.65 -87.39 -2411.65ZM-96.99 -2402.84C-98.05 -2402.02 -99.12 -2401.47 -100.45 -2401.47C-101.79 -2401.47 -102.86 -2402.02 -103.92 -2402.84C-104.72 -2403.95 -105.26 -2405.05 -105.26 -2406.42C-105.26 -2407.8 -104.99 -2408.9 -103.92 -2410C-102.86 -2410.82 -101.79 -2411.37 -100.45 -2411.37C-99.12 -2411.37 -97.79 -2411.1 -96.99 -2410C-96.19 -2409.17 -95.65 -2407.8 -95.65 -2406.42C-95.65 -2405.05 -95.92 -2403.95 -96.99 -2402.84ZM195.92 -2411.65C197.25 -2411.65 198.59 -2411.37 199.39 -2410.27C200.19 -2409.44 200.72 -2408.07 200.72 -2406.69C200.72 -2405.32 200.19 -2403.94 199.39 -2403.12C198.32 -2402.29 197.25 -2401.74 195.92 -2401.74C194.59 -2401.74 193.52 -2402.29 192.45 -2403.12C191.65 -2404.22 191.12 -2405.32 191.12 -2406.69C191.12 -2408.07 191.39 -2409.17 192.45 -2410.27C193.25 -2411.1 194.59 -2411.65 195.92 -2411.65ZM186.32 -2402.84C185.25 -2402.02 184.18 -2401.47 182.85 -2401.47C181.52 -2401.47 180.45 -2402.02 179.38 -2402.84C178.58 -2403.95 178.05 -2405.05 178.05 -2406.42C178.05 -2407.8 178.31 -2408.9 179.38 -2410C180.45 -2410.82 181.52 -2411.37 182.85 -2411.37C184.18 -2411.37 185.52 -2411.1 186.32 -2410C187.12 -2409.17 187.65 -2407.8 187.65 -2406.42C187.65 -2405.05 187.38 -2403.95 186.32 -2402.84ZM328.77 -2348.66C330.1 -2348.66 331.44 -2348.39 332.24 -2347.29C333.04 -2346.46 333.57 -2345.08 333.57 -2343.71C333.57 -2342.33 333.04 -2340.96 332.24 -2340.13C331.17 -2339.31 330.1 -2338.76 328.77 -2338.76C327.43 -2338.76 326.37 -2339.31 325.3 -2340.13C324.5 -2341.23 323.97 -2342.33 323.97 -2343.71C323.97 -2345.08 324.23 -2346.19 325.3 -2347.29C326.1 -2348.39 327.43 -2348.94 328.77 -2348.66ZM319.17 -2340.13C318.1 -2339.31 317.03 -2338.76 315.7 -2338.76C314.36 -2338.76 313.3 -2339.31 312.23 -2340.13C311.43 -2341.23 310.9 -2342.34 310.9 -2343.71C310.9 -2345.08 311.16 -2346.19 312.23 -2347.29C313.3 -2348.11 314.36 -2348.66 315.7 -2348.66C317.03 -2348.66 318.37 -2348.39 319.17 -2347.29C319.97 -2346.46 320.5 -2345.08 320.5 -2343.71C320.5 -2342.34 320.23 -2341.23 319.17 -2340.13Z" />
	<path id="Path 46" fill-rule="evenodd" class="shp4" d="M639.77 -2451.95L643.3 -2449.11C694.89 -2408.19 726.42 -2346.36 729.84 -2279.53L730.06 -2275.33L726.31 -2273.73C698.86 -2261.8 669.76 -2255.78 639.77 -2255.78C609.79 -2255.78 580.68 -2261.8 553.23 -2273.73L549.49 -2275.33L549.71 -2279.53C553.13 -2346.36 584.65 -2408.08 636.24 -2449.11L639.77 -2451.95ZM639.66 -2267.71C666.67 -2267.71 693.02 -2272.94 717.82 -2283.17C713.63 -2343.29 685.3 -2398.87 639.66 -2436.84C594.02 -2398.87 565.69 -2343.29 561.5 -2283.17C586.31 -2272.94 612.65 -2267.71 639.66 -2267.71Z" />
	<path id="Path 47" class="shp5" d="M623.78 -2407.08L626.31 -2404.69L629.4 -2401.51L632.49 -2398.44L635.57 -2395.26L638.55 -2391.96L641.53 -2388.78L644.39 -2385.37L647.26 -2381.96L650.02 -2378.55L652.66 -2375.03L655.31 -2371.5L657.84 -2367.98L660.38 -2364.34L662.8 -2360.59L665.23 -2356.84L667.55 -2353.09L669.86 -2349.23L671.95 -2345.36L674.05 -2341.38L676.14 -2337.52L678.02 -2333.54L679.89 -2329.45L681.65 -2325.47L683.42 -2321.38L685.07 -2317.29L686.72 -2313.2L688.27 -2308.99L689.37 -2305.76L679.6 -2311.18L679.23 -2312.17L676.58 -2318.65L673.72 -2325.02L670.74 -2331.38L667.55 -2337.63L664.13 -2343.77L660.6 -2349.79L656.85 -2355.71L652.88 -2361.5L648.8 -2367.18L644.61 -2372.75L640.2 -2378.21L635.69 -2383.44L631.05 -2388.55L626.2 -2393.55L621.24 -2398.44L618.38 -2401.05C613.64 -2395.15 609.34 -2389.12 605.26 -2382.76L606.69 -2381.62L612.2 -2376.73L617.61 -2371.62L622.9 -2366.5L628.08 -2361.27L633.15 -2355.82L638 -2350.25L642.74 -2344.57L647.37 -2338.77L651.78 -2332.86L656.08 -2326.84L659.73 -2321.49C658.36 -2322.02 656.97 -2322.49 655.58 -2322.91L651.56 -2327.74L646.16 -2334L640.53 -2340.13L634.8 -2346.16L628.96 -2351.95L623.01 -2357.64L616.95 -2363.21L610.66 -2368.66L604.27 -2373.89L601.18 -2376.28C598.09 -2371.05 595.23 -2365.59 592.69 -2360.02L597.98 -2356.39L604.71 -2351.5L610.88 -2346.73L616.95 -2341.84L622.9 -2336.72L628.74 -2331.5L634.47 -2326.04L635.09 -2325.42C631.85 -2325.24 628.62 -2324.77 625.42 -2324.05L624.77 -2324.68L619.15 -2329.79L613.31 -2334.79L607.35 -2339.68L601.29 -2344.34L595.12 -2348.89L589.83 -2352.64C587.95 -2348.2 586.3 -2343.77 584.76 -2339.34L584.98 -2339.22L587.73 -2337.86L590.6 -2336.38L593.35 -2334.9L596.11 -2333.31L598.86 -2331.72L601.62 -2330.02L604.27 -2328.31L606.91 -2326.61L609.56 -2324.79L612.2 -2322.97L614.74 -2321.15L615.23 -2320.78C613.32 -2319.98 611.44 -2319.06 609.59 -2318.06L608.13 -2318.88L603.28 -2321.61L598.31 -2324.22L593.35 -2326.72L588.39 -2329.11L583.32 -2331.5L582.33 -2331.95C580.9 -2327.18 579.68 -2322.29 578.58 -2317.4L582.11 -2316.04L587.51 -2313.88L592.91 -2311.61L596.53 -2310.01L588.64 -2305.08L585.86 -2306.38L582.33 -2307.85L578.8 -2309.33L577.04 -2310.01C576.27 -2305.6 575.5 -2301.06 574.95 -2296.53L574.95 -2296.53L574.95 -2296.53C574.95 -2296.51 574.95 -2296.5 574.94 -2296.49C583.67 -2293.36 592.57 -2290.98 601.63 -2289.22C611.53 -2287.22 623.37 -2285.56 635.7 -2285.49C649.39 -2285.41 661.78 -2286.82 672.07 -2288.66C672.42 -2288.72 672.76 -2288.78 673.1 -2288.84C673.68 -2288.95 674.26 -2289.06 674.83 -2289.17C677.42 -2289.66 680 -2290.21 682.57 -2290.82C688.64 -2292.25 693.52 -2293.69 696.93 -2294.8C698.79 -2295.39 700.65 -2295.99 702.49 -2296.6C696.65 -2345.13 674.05 -2389.8 638.77 -2422.65C633.48 -2417.76 628.52 -2412.54 623.78 -2407.08Z" />
	<path id="Path 48" class="shp3" d="M633 -2302.88C631.45 -2301.09 629.66 -2299.56 627.7 -2298.38C626.53 -2297.67 623.39 -2295.33 622.07 -2296.55C621.87 -2296.74 621.79 -2297.03 621.71 -2297.28C620.64 -2301.74 622.49 -2305.44 624.96 -2308.91C626.45 -2310.98 628.1 -2312.86 629.93 -2314.6C630.19 -2314.85 631.09 -2315.85 631.45 -2315.89C631.49 -2315.89 631.43 -2315.76 631.33 -2315.64C631.25 -2315.51 631.17 -2315.39 631.15 -2315.35C630.39 -2314.02 625 -2304.35 624.94 -2302.6C624.86 -2300.72 629.1 -2301.92 630.23 -2302.79C630.91 -2303.31 630.87 -2304.33 630.89 -2305.24C630.93 -2306.87 630.03 -2308.34 631.47 -2309.63C632.46 -2310.48 634.45 -2311.29 635.61 -2310.52C638.43 -2308.68 634.27 -2304.35 633 -2302.88ZM641.66 -2302.9C640.05 -2300.93 636.03 -2297.18 634.01 -2294.84C631.97 -2292.5 627.76 -2288.21 626.47 -2286.67C625.2 -2285.16 620.02 -2285.27 620.02 -2285.27C620.02 -2285.27 624.26 -2288.89 626.61 -2290.67C628.98 -2292.5 633.26 -2297.88 634.99 -2299.81C636.7 -2301.74 639.65 -2305.55 640.52 -2306.65C641.36 -2307.72 644.03 -2310.65 644.03 -2310.65C644.03 -2310.65 645.56 -2307.72 641.66 -2302.9ZM651.77 -2311.74C650.89 -2309.57 647.55 -2312.59 650.74 -2314.83C653.96 -2317.07 654.34 -2317.52 654.22 -2316.05L651.77 -2311.74ZM661.73 -2311.45C661.76 -2311.12 661.55 -2310.81 661.23 -2310.73C660.87 -2310.64 660.47 -2310.62 660.13 -2310.46C659.56 -2310.23 659.73 -2310 659.75 -2309.36C659.77 -2308.1 659.69 -2306.81 659.44 -2305.57C659.32 -2304.88 659.14 -2304.2 658.76 -2303.66C657.94 -2302.5 656.45 -2302.27 655.49 -2301.3C654.48 -2300.31 653.52 -2299.21 652.63 -2298.11C652.05 -2297.38 651.53 -2295.06 651.35 -2294.13C650.72 -2290.8 642.95 -2287.92 639.13 -2287.92C633.58 -2287.9 637.78 -2291.23 638.65 -2291.89C638.73 -2291.96 638.85 -2292 638.97 -2292L646.46 -2292.81C649.72 -2293.14 650.74 -2297.61 649.34 -2298.83C647.93 -2300.06 646.61 -2300.45 646.42 -2302.9C646.32 -2304.04 648.03 -2308.55 651.97 -2306.46C654.18 -2305.3 656.41 -2305.46 656.41 -2305.46L656.43 -2306.36L656.09 -2310.25C653.56 -2309.75 654.22 -2311.56 654.5 -2312.43C654.78 -2313.3 655.73 -2313.05 658 -2314.08C660.03 -2315.02 660.79 -2315.45 661.23 -2315.45L661.73 -2311.45Z" />
	<path id="Path 55" class="shp6" d="M-243.49 -2547.31L-243.49 -2169.6M858.26 -2547.31L858.26 -2169.6" />
</svg>